<svg width="54" height="82" viewBox="0 0 54 82" fill="none" xmlns="http://www.w3.org/2000/svg">
<path d="M50.7091 36.4362C45.1753 36.0501 39.5129 35.7927 33.9792 35.4067C37.4538 25.24 40.9285 15.0734 44.2745 4.9067C44.918 3.10502 43.2449 0.917257 41.3146 1.04595C28.5741 1.94679 15.8336 2.84763 3.09312 4.00586C1.29143 4.13455 -0.510255 5.80755 0.133204 7.86661C4.76611 22.1514 8.75554 36.951 14.418 50.8497C12.2302 52.5227 12.745 56.7695 15.9623 56.3834C18.5361 56.126 21.11 55.74 23.5551 55.4826C23.2977 63.3328 23.5551 71.0543 24.1986 78.7758C24.456 81.3496 27.4159 82.8939 29.3462 80.9636C34.4939 76.0733 38.0973 70.0248 41.4433 63.7189C45.4327 56.2547 49.1648 48.6619 53.1542 41.0691C54.4411 38.8813 53.0255 36.5649 50.7091 36.4362ZM26.6437 37.337C26.7724 37.2084 26.9011 37.0797 27.0298 37.0797C27.0298 37.2084 26.9011 37.337 26.9011 37.4657C26.515 38.624 26.9011 39.6535 27.6732 40.297C27.4159 40.297 27.1585 40.297 26.7724 40.297C26.7724 39.2674 26.6437 38.2379 26.6437 37.337ZM29.0889 14.816C29.2176 14.816 29.4749 14.6873 29.6036 14.6873C29.4749 15.0734 29.2176 15.4594 29.0889 15.7168C29.0889 15.4594 29.0889 15.202 29.0889 14.816ZM30.5045 51.7505C30.2471 52.2653 30.1184 52.9088 29.9897 53.5522C29.9897 53.0374 29.9897 52.5227 29.9897 52.0079C29.9897 51.8792 29.9897 51.8792 29.9897 51.7505C30.1184 51.7505 30.3758 51.7505 30.5045 51.7505ZM37.0678 7.48054C36.8104 8.38138 36.4243 9.28222 36.1669 10.1831C35.7808 9.79699 35.3947 9.53961 35.0087 9.28223C34.4939 8.51008 33.7218 7.99531 32.6922 8.124C32.6922 8.124 32.6922 8.124 32.5635 8.124C32.1775 7.99531 31.7914 7.99531 31.2766 8.124C31.0192 8.124 30.8905 8.25269 30.6332 8.25269C29.2176 8.25269 27.8019 8.38138 26.3863 8.25269C29.9897 7.86661 33.5931 7.60923 37.0678 7.48054Z" fill="#E7BC3D"/>
<path d="M49.8077 35.5353C43.7592 35.7927 37.7107 35.9214 31.6622 36.1788C36.6812 24.8539 40.928 13.2717 44.4027 1.43201C44.6601 0.531163 43.7592 -0.112294 42.9871 0.0163976C31.9196 1.68939 20.7234 3.49108 9.65589 5.42145C8.88374 5.55015 9.14114 6.83706 9.78459 6.70837C20.3373 5.42145 31.0187 4.00584 41.5715 2.59023C37.9681 14.3012 33.85 25.7548 28.831 36.951C28.4449 37.7231 28.831 38.7526 29.8605 38.7526C35.7803 38.4953 41.7002 38.3666 47.62 38.1092C40.6706 50.0775 33.3352 61.9172 26.9006 74.1429C28.7023 65.9066 29.6031 57.6703 29.7318 49.3054C29.7318 48.6619 28.9597 47.8897 28.1875 48.1471C25.0989 49.4341 22.0103 50.721 18.793 52.0079C15.5757 36.6936 13.1306 20.9932 8.49768 6.06491C8.36898 5.55015 7.33945 5.55014 7.46814 6.1936C9.26982 22.2801 13.5166 38.2379 16.7339 53.9383C16.8626 54.453 17.6348 54.9678 18.1496 54.7104C21.1095 53.4235 24.0694 52.2653 27.158 50.9784C26.9006 59.6007 25.7424 68.0944 23.6833 76.4593C23.4259 77.6176 24.7128 78.261 25.485 77.8749C25.8711 78.3897 26.7719 78.5184 27.2867 77.7463C35.6516 64.6197 42.8584 50.8497 50.7086 37.337C51.3521 36.5649 50.8373 35.5353 49.8077 35.5353Z" fill="#222221"/>
</svg>
